<?xml version="1.0" encoding="utf-8"?>
<!-- Generator: Adobe Illustrator 26.0.2, SVG Export Plug-In . SVG Version: 6.00 Build 0)  -->
<svg version="1.1" id="Layer_1" xmlns="http://www.w3.org/2000/svg" xmlns:xlink="http://www.w3.org/1999/xlink" x="0px" y="0px"
	 viewBox="0 0 64.56 13.68" style="enable-background:new 0 0 64.56 13.68;" xml:space="preserve">
<style type="text/css">
	.st0{fill:#303030;}
</style>
<g>
	<g>
		<path class="st0" d="M7.99,6.67c0-0.78-0.34-1.17-1.06-1.17c-0.43,0-0.79,0.19-0.95,0.4C5.85,6.06,5.82,6.18,5.82,6.58v1.74
			c0,0.82,0.02,0.94,0.43,0.99l0.24,0.03C6.57,9.4,6.55,9.6,6.47,9.63C6.12,9.61,5.79,9.6,5.4,9.6c-0.41,0-0.72,0.01-1.04,0.03
			C4.28,9.6,4.26,9.4,4.34,9.35l0.21-0.03c0.42-0.07,0.43-0.17,0.43-0.99V6.67c0-0.76-0.34-1.17-1.05-1.17
			c-0.47,0-0.79,0.21-0.96,0.41C2.85,6.04,2.8,6.19,2.8,6.55v1.77c0,0.82,0.02,0.92,0.43,0.99l0.21,0.03
			C3.52,9.4,3.49,9.6,3.41,9.63C3.1,9.61,2.77,9.6,2.38,9.6c-0.41,0-0.75,0.01-1.11,0.03C1.19,9.6,1.17,9.4,1.25,9.35l0.27-0.03
			c0.42-0.06,0.43-0.17,0.43-0.99V6.33c0-0.44,0-0.5-0.31-0.71l-0.1-0.07C1.5,5.51,1.5,5.38,1.55,5.35
			c0.26-0.09,0.91-0.39,1.14-0.56c0.05,0,0.1,0.02,0.13,0.08C2.8,5.13,2.8,5.3,2.8,5.4c0,0.07,0.05,0.13,0.13,0.13
			c0.43-0.31,0.97-0.58,1.52-0.58c0.57,0,0.89,0.21,1.21,0.67c0.1,0.02,0.18-0.02,0.29-0.09c0.46-0.32,1.01-0.58,1.55-0.58
			c0.91,0,1.36,0.63,1.36,1.41v1.96c0,0.82,0.02,0.94,0.43,0.99l0.27,0.03C9.62,9.4,9.6,9.6,9.52,9.63C9.15,9.61,8.82,9.6,8.42,9.6
			c-0.41,0-0.72,0.01-1.04,0.03C7.3,9.6,7.28,9.4,7.36,9.35l0.21-0.03c0.42-0.07,0.43-0.17,0.43-0.99V6.67z"/>
		<path class="st0" d="M11.62,7.92c0,0.79,0.19,1.31,1.06,1.31c0.31,0,0.67-0.13,0.92-0.34c0.15-0.14,0.23-0.31,0.23-0.66V6.36
			c0-0.74-0.08-0.76-0.42-0.9L13.27,5.4c-0.08-0.05-0.08-0.21,0.01-0.25c0.46-0.01,1.08-0.09,1.33-0.21
			c0.06,0.01,0.09,0.03,0.1,0.08c-0.02,0.22-0.03,0.57-0.03,0.99v1.92c0,0.9,0.03,1.24,0.35,1.24c0.14,0,0.29-0.02,0.44-0.06
			c0.07,0.06,0.08,0.28-0.01,0.33c-0.44,0.09-1.11,0.21-1.49,0.42c-0.06,0-0.11-0.03-0.14-0.08V9.32c0-0.1-0.03-0.16-0.1-0.16
			c-0.34,0.22-0.9,0.59-1.57,0.59c-1,0-1.38-0.5-1.38-1.42v-1.9c0-0.72,0-0.82-0.34-0.97L10.3,5.4c-0.07-0.06-0.06-0.22,0.02-0.25
			c0.52-0.01,0.97-0.11,1.22-0.21c0.07,0.01,0.1,0.03,0.11,0.08c-0.02,0.19-0.03,0.43-0.03,0.99V7.92z"/>
		<path class="st0" d="M16.77,6.33c0-0.44,0-0.5-0.31-0.71l-0.1-0.07c-0.05-0.05-0.05-0.17,0.01-0.21c0.26-0.09,0.91-0.39,1.14-0.56
			c0.05,0,0.1,0.02,0.13,0.08c-0.02,0.26-0.02,0.43-0.02,0.54c0,0.07,0.05,0.13,0.13,0.13c0.48-0.3,1.01-0.58,1.6-0.58
			c0.95,0,1.33,0.65,1.33,1.41v1.96c0,0.82,0.02,0.94,0.43,0.99l0.25,0.03c0.08,0.06,0.06,0.25-0.02,0.29
			c-0.34-0.02-0.67-0.03-1.07-0.03c-0.41,0-0.75,0.01-1.06,0.03c-0.08-0.03-0.1-0.23-0.02-0.29l0.22-0.03
			c0.42-0.07,0.43-0.17,0.43-0.99v-1.7c0-0.65-0.3-1.13-1.07-1.13c-0.43,0-0.81,0.18-0.97,0.4c-0.15,0.19-0.17,0.35-0.17,0.68v1.74
			c0,0.82,0.02,0.92,0.43,0.99l0.21,0.03c0.08,0.06,0.06,0.25-0.02,0.29c-0.31-0.02-0.64-0.03-1.04-0.03
			c-0.41,0-0.75,0.01-1.07,0.03c-0.08-0.03-0.1-0.23-0.02-0.29l0.24-0.03c0.42-0.06,0.43-0.17,0.43-0.99V6.33z"/>
		<path class="st0" d="M22.76,6.33c0-0.44,0-0.5-0.31-0.71l-0.1-0.07c-0.05-0.05-0.05-0.17,0.01-0.21c0.26-0.09,0.91-0.39,1.14-0.56
			c0.05,0,0.1,0.02,0.13,0.08C23.6,5.13,23.6,5.3,23.6,5.4c0,0.07,0.05,0.13,0.13,0.13c0.48-0.3,1.01-0.58,1.6-0.58
			c0.95,0,1.33,0.65,1.33,1.41v1.96c0,0.82,0.02,0.94,0.43,0.99l0.25,0.03c0.08,0.06,0.06,0.25-0.02,0.29
			c-0.34-0.02-0.67-0.03-1.07-0.03c-0.41,0-0.75,0.01-1.06,0.03c-0.08-0.03-0.1-0.23-0.02-0.29l0.22-0.03
			c0.42-0.07,0.43-0.17,0.43-0.99v-1.7c0-0.65-0.3-1.13-1.07-1.13c-0.43,0-0.81,0.18-0.97,0.4c-0.15,0.19-0.17,0.35-0.17,0.68v1.74
			c0,0.82,0.02,0.92,0.43,0.99l0.21,0.03c0.08,0.06,0.06,0.25-0.02,0.29c-0.31-0.02-0.64-0.03-1.04-0.03
			c-0.41,0-0.75,0.01-1.07,0.03C22.03,9.6,22,9.4,22.08,9.35l0.24-0.03c0.42-0.06,0.43-0.17,0.43-0.99V6.33z"/>
		<path class="st0" d="M29.11,6.68c-0.3,0-0.31,0.02-0.31,0.31c0,1.15,0.67,2.13,1.89,2.13c0.38,0,0.7-0.11,1.05-0.56
			c0.11-0.03,0.19,0.03,0.21,0.14c-0.38,0.77-1.2,1.06-1.79,1.06c-0.74,0-1.32-0.32-1.65-0.75c-0.34-0.44-0.48-0.98-0.48-1.48
			c0-1.4,0.92-2.58,2.29-2.58c0.98,0,1.62,0.67,1.62,1.36c0,0.16-0.02,0.25-0.05,0.3c-0.03,0.07-0.19,0.08-0.67,0.08H29.11z
			 M29.81,6.34c0.84,0,1.09-0.05,1.19-0.11c0.03-0.02,0.07-0.07,0.07-0.22c0-0.32-0.22-0.72-0.88-0.72c-0.67,0-1.25,0.62-1.27,0.99
			c0,0.02,0,0.06,0.08,0.06H29.81z"/>
		<path class="st0" d="M33.99,8.32c0,0.82,0.02,0.94,0.43,0.99l0.27,0.03c0.08,0.06,0.06,0.25-0.02,0.29
			C34.3,9.61,33.97,9.6,33.57,9.6c-0.41,0-0.75,0.01-1.09,0.03c-0.08-0.03-0.1-0.23-0.02-0.29l0.26-0.03
			c0.42-0.06,0.43-0.17,0.43-0.99V3.17c0-0.67-0.01-0.74-0.35-0.95l-0.11-0.07c-0.06-0.03-0.06-0.19,0-0.23
			c0.29-0.09,0.82-0.26,1.23-0.48c0.05,0,0.09,0.02,0.11,0.07c-0.01,0.34-0.03,0.91-0.03,1.41V8.32z"/>
		<path class="st0" d="M36.81,8.32c0,0.82,0.02,0.94,0.43,0.99l0.27,0.03c0.08,0.06,0.06,0.25-0.02,0.29
			c-0.38-0.02-0.71-0.03-1.11-0.03c-0.41,0-0.75,0.01-1.09,0.03c-0.08-0.03-0.1-0.23-0.02-0.29l0.26-0.03
			c0.42-0.06,0.43-0.17,0.43-0.99V3.17c0-0.67-0.01-0.74-0.35-0.95L35.5,2.15c-0.06-0.03-0.06-0.19,0-0.23
			c0.29-0.09,0.82-0.26,1.23-0.48c0.05,0,0.09,0.02,0.11,0.07c-0.01,0.34-0.03,0.91-0.03,1.41V8.32z"/>
		<path class="st0" d="M38.05,11.95c0-0.31,0.21-0.46,0.46-0.46h0.22c0.18,0,0.3-0.08,0.38-0.21c0.33-0.51,0.56-0.99,0.66-1.27
			c0.03-0.09,0.11-0.33,0.11-0.49c0-0.23-0.05-0.36-0.19-0.79L38.79,6.3c-0.19-0.54-0.27-0.81-0.67-0.89l-0.28-0.06
			c-0.07-0.06-0.06-0.25,0.03-0.28c0.36,0.02,0.71,0.03,1.08,0.03c0.31,0,0.63-0.01,0.99-0.03c0.09,0.03,0.1,0.23,0.02,0.28
			l-0.29,0.06c-0.16,0.03-0.25,0.07-0.25,0.15c0,0.14,0.26,0.88,0.33,1.07l0.36,1.05c0.07,0.18,0.28,0.79,0.33,0.81
			c0.03-0.02,0.22-0.38,0.42-0.84l0.39-0.9c0.25-0.59,0.4-1.01,0.4-1.14c0-0.08-0.07-0.16-0.27-0.19l-0.35-0.06
			c-0.08-0.06-0.07-0.25,0.02-0.28c0.36,0.02,0.71,0.03,1,0.03c0.29,0,0.55-0.01,0.87-0.03c0.09,0.05,0.1,0.22,0.02,0.28l-0.19,0.03
			c-0.38,0.07-0.58,0.4-0.97,1.21l-0.64,1.31c-0.38,0.76-1.31,2.75-1.87,3.99c-0.19,0.43-0.47,0.54-0.73,0.54
			C38.22,12.44,38.05,12.23,38.05,11.95z"/>
		<path class="st0" d="M42.59,9.13c0-0.39,0.27-0.67,0.64-0.67c0.39,0,0.64,0.31,0.64,0.67s-0.25,0.63-0.64,0.63
			C42.9,9.76,42.59,9.52,42.59,9.13z"/>
		<path class="st0" d="M48.84,5.14c0.09,0.08,0.17,0.26,0.17,0.46c0,0.21-0.11,0.42-0.25,0.42c-0.06,0-0.11-0.02-0.16-0.08
			c-0.25-0.31-0.67-0.6-1.14-0.6c-0.8,0-1.57,0.63-1.57,1.84c0,0.89,0.62,1.95,1.83,1.95c0.66,0,1-0.3,1.27-0.68
			c0.09-0.02,0.19,0.06,0.21,0.16c-0.39,0.84-1.24,1.16-1.9,1.16c-0.6,0-1.16-0.19-1.56-0.58c-0.4-0.39-0.66-0.95-0.66-1.69
			c0-1.23,0.87-2.54,2.76-2.54C48.08,4.95,48.53,5,48.84,5.14z"/>
		<path class="st0" d="M54.36,7.31c0,1.42-0.98,2.45-2.4,2.45c-1.31,0-2.34-0.92-2.34-2.35c0-1.44,1.08-2.46,2.43-2.46
			C53.32,4.95,54.36,5.9,54.36,7.31z M51.91,5.29c-0.75,0-1.31,0.72-1.31,1.97c0,1.04,0.47,2.15,1.47,2.15s1.31-1.05,1.31-1.93
			C53.38,6.52,52.99,5.29,51.91,5.29z"/>
		<path class="st0" d="M61.92,6.67c0-0.78-0.34-1.17-1.06-1.17c-0.43,0-0.79,0.19-0.95,0.4c-0.14,0.17-0.17,0.29-0.17,0.68v1.74
			c0,0.82,0.02,0.94,0.43,0.99l0.24,0.03c0.08,0.06,0.06,0.25-0.02,0.29c-0.34-0.02-0.67-0.03-1.07-0.03
			c-0.41,0-0.72,0.01-1.04,0.03c-0.08-0.03-0.1-0.23-0.02-0.29l0.21-0.03c0.42-0.07,0.43-0.17,0.43-0.99V6.67
			c0-0.76-0.34-1.17-1.05-1.17c-0.47,0-0.79,0.21-0.96,0.41c-0.11,0.14-0.17,0.28-0.17,0.65v1.77c0,0.82,0.02,0.92,0.43,0.99
			l0.21,0.03c0.08,0.06,0.06,0.25-0.02,0.29C57.03,9.61,56.7,9.6,56.3,9.6c-0.41,0-0.75,0.01-1.11,0.03
			c-0.08-0.03-0.1-0.23-0.02-0.29l0.27-0.03c0.42-0.06,0.43-0.17,0.43-0.99V6.33c0-0.44,0-0.5-0.31-0.71l-0.1-0.07
			c-0.05-0.05-0.05-0.17,0.01-0.21c0.26-0.09,0.91-0.39,1.14-0.56c0.05,0,0.1,0.02,0.13,0.08c-0.02,0.26-0.02,0.43-0.02,0.54
			c0,0.07,0.05,0.13,0.13,0.13c0.43-0.31,0.97-0.58,1.52-0.58c0.57,0,0.89,0.21,1.21,0.67c0.1,0.02,0.18-0.02,0.29-0.09
			c0.46-0.32,1.01-0.58,1.55-0.58c0.91,0,1.36,0.63,1.36,1.41v1.96c0,0.82,0.02,0.94,0.43,0.99l0.27,0.03
			c0.08,0.06,0.06,0.25-0.02,0.29c-0.38-0.02-0.71-0.03-1.11-0.03c-0.41,0-0.72,0.01-1.04,0.03c-0.08-0.03-0.1-0.23-0.02-0.29
			l0.21-0.03c0.42-0.07,0.43-0.17,0.43-0.99V6.67z"/>
	</g>
</g>
<rect x="1.02" y="10.5" class="st0" width="36.58" height="0.47"/>
<rect x="41.5" y="10.5" class="st0" width="22.03" height="0.47"/>
</svg>
