<svg width="296" height="24" viewBox="0 0 296 24" fill="none" xmlns="http://www.w3.org/2000/svg">
<path d="M130.456 23.881C126.116 23.1834 119.893 21.6333 112.479 19.2305C108.292 17.9129 100.456 16.3627 95.8466 15.9752C89.0476 15.3551 84.3229 14.735 80.0207 13.7274C77.255 13.1073 73.2216 12.7198 66.1922 12.4098C51.8643 11.6347 52.9015 11.5571 47.5237 14.1924C39.1913 18.7572 30.4482 19.3674 21.9794 15.9752C16.9008 14.3311 11.7539 13.708 6.61441 14.115C1.6976 14.115 1.08298 14.1149 0.545227 13.6499C0.00744582 13.1848 -0.223023 12.4098 0.276336 10.4721C0.775695 8.53434 1.62079 7.68171 5.53885 6.98413C13.2213 5.51147 19.4058 4.50389 22.7861 4.11635C27.3571 3.57379 47.2164 3.26371 52.6326 3.65126C54.9373 3.65126 61.0449 4.27133 66.1538 4.50386C71.2626 4.73638 76.6404 5.27895 78.2921 5.6665C79.9438 6.05404 83.8235 6.59659 87.2422 6.98413C90.6609 7.37167 94.6559 7.83672 96.1924 8.06924C97.7289 8.30177 100.034 8.53434 101.647 8.53434C103.26 8.53434 107.678 8.53434 111.826 9.38693C122.236 10.6271 131.724 10.8596 143.478 10.317C151.469 10.5463 159.46 9.82166 167.409 8.14677C172.034 6.56346 176.704 5.57969 181.391 5.20146C184.618 5.20146 188.152 4.50388 189.074 4.34886C189.996 4.19384 193.376 3.88378 196.142 3.65125C198.907 3.41872 202.902 2.87619 205.015 2.41114C210.531 0.711241 216.106 -0.0922454 221.686 0.00839368C229.647 0.153449 237.579 1.99808 245.348 5.5115C252.8 8.45683 258.908 10.627 261.558 11.1696C264.11 11.7796 266.689 11.7796 269.241 11.1696C270.513 10.7752 271.796 10.5165 273.082 10.3945C274.734 10.3945 276.923 9.69695 278.344 9.3094C279.766 8.92186 281.878 8.4568 283.376 8.14676C284.875 7.83673 286.449 7.60419 286.757 7.52668C286.906 7.48023 287.058 7.49765 287.204 7.57777C287.349 7.65789 287.485 7.79896 287.602 7.99177C287.794 8.45682 287.871 8.45682 288.101 7.99177C288.332 7.52672 288.639 7.21668 288.831 7.99177C288.894 8.10616 288.976 8.16941 289.061 8.16941C289.147 8.16941 289.229 8.10616 289.292 7.99177C289.484 7.99177 289.715 7.99177 289.753 7.99177C289.813 8.08605 289.888 8.13718 289.964 8.13718C290.041 8.13718 290.115 8.08605 290.175 7.99177C290.193 7.94364 290.217 7.90455 290.243 7.87764C290.27 7.85073 290.299 7.83672 290.329 7.83672C290.359 7.83672 290.388 7.85073 290.415 7.87764C290.442 7.90455 290.465 7.94364 290.483 7.99177C290.483 7.99177 290.675 7.29419 290.675 7.99177C290.675 8.68935 290.944 8.68934 292.096 8.76684C292.768 8.78847 293.437 8.94423 294.094 9.23188C294.441 9.56618 294.823 9.72579 295.207 9.69697C295.515 9.69697 296.129 11.7897 295.976 12.0997C294.183 12.9326 292.358 13.4512 290.521 13.6499C287.141 13.9884 283.778 14.8173 280.457 16.1301C277.845 16.9827 274.503 18.0679 273.043 18.4554C271.584 18.843 269.855 19.463 269.202 19.7731C263.935 21.2839 258.601 21.5959 253.299 20.7032C251.417 20.0831 244.58 16.8277 241.43 15.045C239.125 13.6499 234.016 10.9371 232.403 10.162C230.79 9.38692 223.799 8.14679 219.036 7.44921C214.318 7.02167 209.592 7.61931 204.938 9.23188C200.885 10.2673 196.808 10.8624 192.723 11.0146C185.04 11.6347 175.86 12.7198 174.285 13.1848C173.517 13.1848 171.481 14.1149 169.752 14.8125C161.378 17.7578 158.229 19.0755 156.423 20.0056C154.095 21.3502 151.719 22.3348 149.317 22.9509C146.108 23.7886 142.872 24.1254 139.637 23.9585C135.796 23.9585 131.647 23.9585 130.187 23.9585L130.456 23.881Z" fill="#F81CE5"/>
</svg>